<svg xmlns="http://www.w3.org/2000/svg" width="25.25" height="21.875" viewBox="0 0 25.25 21.875">
  <metadata><?xpacket begin="﻿" id="W5M0MpCehiHzreSzNTczkc9d"?>
<x:xmpmeta xmlns:x="adobe:ns:meta/" x:xmptk="Adobe XMP Core 5.6-c138 79.159824, 2016/09/14-01:09:01        ">
   <rdf:RDF xmlns:rdf="http://www.w3.org/1999/02/22-rdf-syntax-ns#">
      <rdf:Description rdf:about=""/>
   </rdf:RDF>
</x:xmpmeta>
                                                                                                    
                                                                                                    
                                                                                                    
                                                                                                    
                                                                                                    
                                                                                                    
                                                                                                    
                                                                                                    
                                                                                                    
                                                                                                    
                                                                                                    
                                                                                                    
                                                                                                    
                                                                                                    
                                                                                                    
                                                                                                    
                                                                                                    
                                                                                                    
                                                                                                    
                                                                                                    
                           
<?xpacket end="w"?></metadata>
<defs>
    <style>
      .cls-1 {
        fill: #ff5816;
        fill-rule: evenodd;
      }
    </style>
  </defs>
  <path id="Forma_1" data-name="Forma 1" class="cls-1" d="M284.559,107.821a2.09,2.09,0,1,0,2.109,2.088A2.1,2.1,0,0,0,284.559,107.821Zm9.206,0a2.09,2.09,0,1,0,2.11,2.088A2.1,2.1,0,0,0,293.765,107.821Zm5.3-11.455-11.685,0a1.048,1.048,0,1,0,0,2.1h10.338l-0.656,2.2-10.51,0a0.973,0.973,0,1,0,0,1.945l9.929,0-0.616,2.056H284.019l-0.786-6.206-0.751-6.046a1.178,1.178,0,0,0-.882-0.991l-5-1.263a1.186,1.186,0,0,0-1.441.848,1.173,1.173,0,0,0,.855,1.428l4.215,1.065,1.641,12.2a1.426,1.426,0,0,0,1.361,1.423h13.093a1.383,1.383,0,0,0,1.309-1.134l2.595-7.634S301,96.366,299.064,96.366Z" transform="translate(-275.125 -90.125)"/>
</svg>
